<?xml version="1.0" encoding="iso-8859-1"?>
<!-- Generator: Adobe Illustrator 19.0.0, SVG Export Plug-In . SVG Version: 6.00 Build 0)  -->
<svg version="1.1" id="Capa_1" xmlns="http://www.w3.org/2000/svg" xmlns:xlink="http://www.w3.org/1999/xlink" x="0px" y="0px"
	 viewBox="0 0 512 512" style="enable-background:new 0 0 512 512;" xml:space="preserve">
<path style="fill:#6E50B5;" d="M488,424h-96c-13.233,0-24,10.766-24,24v32c0,13.234,10.767,24,24,24h96c13.233,0,24-10.766,24-24
	v-32C512,434.766,501.233,424,488,424z"/>
<path style="fill:#8759B5;" d="M488,320h-96c-13.233,0-24,10.766-24,24v32c0,13.234,10.767,24,24,24h96c13.233,0,24-10.766,24-24
	v-32C512,330.766,501.233,320,488,320z"/>
<path style="fill:#FA3EAF;" d="M488,216h-96c-13.233,0-24,10.766-24,24v32c0,13.234,10.767,24,24,24h96c13.233,0,24-10.766,24-24
	v-32C512,226.766,501.233,216,488,216z"/>
<g>
	<path style="fill:#FF6BB5;" d="M488,112h-96c-13.233,0-24,10.766-24,24v32c0,13.234,10.767,24,24,24h96c13.233,0,24-10.766,24-24
		v-32C512,122.766,501.233,112,488,112z"/>
	<path style="fill:#FF6BB5;" d="M488,8h-96c-13.233,0-24,10.766-24,24v32c0,13.234,10.767,24,24,24h96c13.233,0,24-10.766,24-24V32
		C512,18.766,501.233,8,488,8z"/>
</g>
<path style="fill:#227DC9;" d="M304,424h-96c-13.234,0-24,10.766-24,24v32c0,13.234,10.766,24,24,24h96c13.233,0,24-10.766,24-24
	v-32C328,434.766,317.233,424,304,424z"/>
<path style="fill:#469EE8;" d="M304,320h-96c-13.234,0-24,10.766-24,24v32c0,13.234,10.766,24,24,24h96c13.233,0,24-10.766,24-24
	v-32C328,330.766,317.233,320,304,320z"/>
<path style="fill:#38B1C9;" d="M304,216h-96c-13.234,0-24,10.766-24,24v32c0,13.234,10.766,24,24,24h96c13.233,0,24-10.766,24-24
	v-32C328,226.766,317.233,216,304,216z"/>
<path style="fill:#45CDD9;" d="M304,112h-96c-13.234,0-24,10.766-24,24v32c0,13.234,10.766,24,24,24h96c13.233,0,24-10.766,24-24
	v-32C328,122.766,317.233,112,304,112z"/>
<path style="fill:#5DC43D;" d="M120,424H24c-13.234,0-24,10.766-24,24v32c0,13.234,10.766,24,24,24h96c13.234,0,24-10.766,24-24v-32
	C144,434.766,133.234,424,120,424z"/>
<path style="fill:#86D631;" d="M120,320H24c-13.234,0-24,10.766-24,24v32c0,13.234,10.766,24,24,24h96c13.234,0,24-10.766,24-24v-32
	C144,330.766,133.234,320,120,320z"/>
<g>
</g>
<g>
</g>
<g>
</g>
<g>
</g>
<g>
</g>
<g>
</g>
<g>
</g>
<g>
</g>
<g>
</g>
<g>
</g>
<g>
</g>
<g>
</g>
<g>
</g>
<g>
</g>
<g>
</g>
</svg>
